<svg width="270" height="121" viewBox="0 0 270 121" fill="none" xmlns="http://www.w3.org/2000/svg">
<g clip-path="url(#clip0_26644_8026)">
<mask id="mask0_26644_8026" style="mask-type:alpha" maskUnits="userSpaceOnUse" x="-27" y="-70" width="314" height="339">
<path fill-rule="evenodd" clip-rule="evenodd" d="M-9.19983 6.03362C-13.215 5.64831 -17.1166 4.05662 -20.1938 1.25854C-27.3312 -5.23133 -27.3312 -15.7535 -20.1938 -22.2433C-17.1691 -24.9936 -13.943 -26.7661 -11.768 -27.8613C-10.7174 -28.3903 -9.68373 -28.8708 -8.94034 -29.2164C-8.90409 -29.2332 -8.86854 -29.2498 -8.83371 -29.266C-7.98586 -29.6602 -7.48237 -29.8967 -7.05112 -30.1154C-4.98353 -31.1639 -2.71481 -32.3559 -0.31288 -33.6179C5.6991 -36.7766 12.5456 -40.3737 19.1615 -43.2562C28.8918 -47.4957 38.7827 -52.298 48.6036 -57.1911C48.6151 -57.1969 48.6536 -57.217 48.7162 -57.2497C49.3399 -57.5759 52.3639 -59.1571 55.074 -60.2934C56.6369 -60.9486 58.9243 -61.8263 61.5015 -62.4175C63.2705 -62.8234 69.014 -64.0763 75.2962 -61.7914C78.2939 -60.7011 82.6639 -58.2845 85.316 -53.4251C87.9313 -48.6332 87.4182 -44.1269 86.6996 -41.5261C85.566 -37.4235 82.9632 -34.555 82.4053 -33.9402C82.3814 -33.9138 82.3612 -33.8916 82.3451 -33.8736C81.5884 -33.0291 80.6917 -32.1535 80.3715 -31.8409C80.3703 -31.8397 80.369 -31.8384 80.3677 -31.8372C79.1259 -30.1888 77.8171 -28.5653 76.4668 -26.9727C82.3324 -29.7188 88.007 -32.6092 93.4908 -35.7944C93.8328 -36.077 94.3465 -36.5003 94.7481 -36.8191C95.0451 -37.055 95.5724 -37.4686 96.1817 -37.8947C96.4767 -38.101 97.0182 -38.4707 97.7101 -38.8714C97.7204 -38.8774 97.7326 -38.8845 97.7467 -38.8927C98.1447 -39.1248 100.043 -40.2313 102.711 -40.9151C103.948 -41.2322 107.71 -42.1077 112.363 -40.9941C118.551 -39.5132 123.292 -35.2594 125.152 -29.9343C126.553 -25.9221 125.879 -22.587 125.626 -21.4781C125.295 -20.0304 124.82 -18.9276 124.561 -18.3655C123.741 -16.5882 122.676 -15.1912 122.431 -14.8696C122.419 -14.854 122.409 -14.8409 122.402 -14.8304C121.921 -14.1952 121.421 -13.5711 120.908 -12.9602C121.016 -12.9612 121.124 -12.9614 121.233 -12.9608C123.348 -12.9483 128.681 -12.605 133.521 -8.74756C139.122 -4.28374 140.058 1.54695 139.811 5.06448C139.593 8.17136 138.488 10.4888 137.985 11.4638C136.32 14.6937 133.549 17.3948 132.636 18.2854C132.599 18.3209 132.566 18.3536 132.536 18.3833C130.159 20.7084 126.996 23.3962 125.353 24.7926C125.104 25.0043 124.89 25.1864 124.719 25.333C114.267 34.2813 102.962 42.5264 92.3374 50.2751C89.8183 52.1123 87.3375 53.9216 84.9154 55.7058C71.933 65.2688 60.1534 74.4384 50.1271 84.8574C43.4803 91.7646 31.934 92.4645 24.3376 86.4207C20.1971 83.1264 18.0847 78.5086 18.0961 73.8702C16.1727 74.9431 14.2441 76.0204 12.3089 77.1013C11.3583 77.6323 10.4061 78.1642 9.45217 78.6969C9.0132 78.942 8.36757 79.3204 7.46652 79.8486L7.38853 79.8944C6.66373 80.3194 5.62465 80.9286 4.7955 81.3805C4.79169 81.3825 4.78487 81.3863 4.77516 81.3917C4.58597 81.4965 3.30008 82.2091 1.82078 82.7685C1.44114 82.9121 0.0900517 83.4228 -1.72431 83.7489C-2.57755 83.9023 -4.58244 84.2165 -7.13371 83.9813C-9.53479 83.76 -15.1141 82.7711 -19.4344 77.9811C-23.9845 72.9364 -23.8294 67.4068 -23.3323 64.6971C-22.8526 62.0824 -21.7944 60.2104 -21.3452 59.4609C-20.3846 57.8581 -19.3397 56.7634 -19.0592 56.4696L-19.0531 56.4632C-17.954 55.3115 -16.7261 54.3734 -16.4418 54.1562C-16.4248 54.1433 -16.4112 54.1329 -16.4012 54.1252C-15.8406 53.6932 -15.1729 53.1998 -14.4321 52.6627C-13.6855 52.1213 -12.817 51.4708 -11.8544 50.7498C-8.68007 48.3721 -4.48236 45.228 -0.258142 42.7039C1.23767 41.8101 2.72247 40.9005 4.19705 39.9756C3.53376 40.216 2.87045 40.4536 2.20727 40.6883C1.40397 40.9726 -0.665361 41.6985 -3.13724 42.0222L-3.15911 42.025C-4.05661 42.1427 -7.72013 42.6229 -12.0064 41.277C-14.5239 40.4866 -17.9352 38.8441 -20.6619 35.5826C-23.4754 32.2173 -24.3909 28.5273 -24.4115 25.5632C-24.4452 20.7375 -22.161 17.3518 -21.6617 16.6117L-21.639 16.5781C-20.8118 15.3496 -19.974 14.4491 -19.5307 13.9917C-18.5994 13.0307 -17.6708 12.2604 -17.1428 11.8338C-15.3389 10.3766 -11.9255 8.0386 -12.4099 8.38684C-11.3306 7.6109 -10.2609 6.82645 -9.19983 6.03362ZM-13.9951 52.8717C-14.1858 52.9757 -14.1434 52.9454 -13.936 52.8392C-13.9575 52.8511 -13.9772 52.8619 -13.9951 52.8717ZM7.23061 79.4816C7.23176 79.4807 7.23291 79.4798 7.23408 79.4789C7.0312 79.6463 6.99176 79.6656 7.23061 79.4816ZM92.7759 -35.2149C92.7799 -35.2194 92.8428 -35.27 92.9526 -35.3528C92.8268 -35.2518 92.7719 -35.2103 92.7759 -35.2149ZM-11.0522 9.7155C-11.1981 9.76715 -11.1568 9.74542 -10.964 9.68427C-10.9934 9.69469 -11.0228 9.7051 -11.0522 9.7155ZM7.15151 36.6673C7.10141 36.7094 7.09229 36.7151 7.13535 36.6803C7.14074 36.6759 7.14613 36.6716 7.15151 36.6673ZM80.0089 -31.4771C80.0074 -31.4761 80.0274 -31.4976 80.0734 -31.5446C80.0335 -31.5017 80.0105 -31.4782 80.0089 -31.4771Z" fill="#212121"/>
<path fill-rule="evenodd" clip-rule="evenodd" d="M226.985 -44.9759C227 -45.0083 227.016 -45.041 227.031 -45.0738C227.309 -45.6701 228.108 -47.4176 228.462 -49.7086C228.636 -50.839 228.889 -53.209 228.125 -56.0809C227.272 -59.2865 224.949 -63.6207 219.768 -66.4761C214.974 -69.1182 210.307 -69.0521 207.857 -68.7697C205.369 -68.4831 203.483 -67.7993 202.511 -67.4066C198.487 -65.7803 195.71 -63.3117 194.392 -62.0684C192.823 -60.5868 191.484 -59.0367 190.527 -57.884C189.841 -57.0583 189.089 -56.111 188.539 -55.4185C188.353 -55.1839 188.19 -54.9785 188.06 -54.817C187.598 -54.2404 187.389 -53.9993 187.354 -53.9561C186.479 -53.0939 185.607 -52.2342 184.738 -51.3771C180.898 -47.592 177.11 -43.8576 173.325 -40.1778C171.934 -39.1021 170.51 -38.0104 169.055 -36.8948C166.357 -34.8263 163.552 -32.6759 160.652 -30.3937C152.726 -24.155 144.798 -18.1396 136.723 -12.0135C132.445 -8.76779 128.126 -5.49099 123.745 -2.13338C118.102 2.19083 111.555 7.47502 105.98 14.3707C105.743 14.6629 105.464 14.9863 104.997 15.5261C104.693 15.8781 104.31 16.3221 103.806 16.9096C102.736 18.1595 101.367 19.7868 100.025 21.5547C98.7222 23.2709 97.1697 25.4763 95.8841 27.9017C95.1577 29.2721 94.1087 31.4481 93.4718 34.1386C93.1528 34.492 92.835 34.846 92.5186 35.2006C86.1583 42.3274 87.3562 52.793 95.194 58.5762C96.9224 59.8515 98.8294 60.7926 100.82 61.4085C95.761 66.6276 90.8735 71.7034 87.8305 74.9163C85.3187 77.5684 82.8026 80.2232 80.2835 82.8812C54.7336 109.839 28.8783 137.12 4.14303 165.142C4.087 165.205 4.02825 165.272 3.9673 165.343C3.87018 165.425 3.78306 165.498 3.70672 165.563C3.63299 165.626 3.44021 165.79 3.23886 165.97C3.18003 166.023 3.07226 166.12 2.9415 166.241L2.93433 166.248C2.85659 166.321 2.50856 166.645 2.10402 167.077L2.09072 167.091C1.94895 167.242 1.26997 167.965 0.569767 168.972C0.11116 169.669 -1.02718 171.857 -1.58513 173.384C-1.75452 174.386 -1.62758 175.836 -1.23694 177.519C-1.22209 178.476 -1.11646 179.538 -0.859226 180.664C-0.791393 180.961 -0.709955 181.275 -0.612524 181.603C-2.80663 183.942 -5.31187 186.677 -7.41211 189.33C-7.57518 189.536 -8.03683 190.123 -8.52877 190.911C-8.75711 191.276 -9.26413 192.114 -9.73586 193.245C-9.74157 193.258 -9.74901 193.276 -9.75803 193.297C-10.0124 193.894 -11.5186 197.429 -10.6628 201.962C-10.1086 204.897 -8.42156 208.861 -4.28728 211.966C-0.297506 214.963 4.00059 215.673 6.68807 215.762C8.51498 215.823 10.1441 215.621 11.4684 215.346C9.72352 216.892 8.02461 218.401 6.41233 219.835C1.36693 224.323 -2.96378 228.202 -5.17617 230.243C-5.70321 230.729 -6.27699 231.264 -6.73497 231.716L-6.74269 231.724C-6.82899 231.808 -7.54875 232.509 -8.24075 233.363C-8.42004 233.584 -9.02911 234.338 -9.64722 235.384C-9.929 235.862 -10.5984 237.037 -11.11 238.65L-11.1198 238.68C-11.4189 239.621 -12.9746 244.516 -10.2106 250.09C-6.24784 258.082 2.07135 259.846 6.29561 259.879C9.80709 259.907 12.4108 258.987 13.102 258.742C14.8632 258.118 16.1301 257.368 16.4109 257.202L16.4346 257.188C17.2265 256.721 17.8272 256.285 17.9837 256.171L17.9943 256.164C18.2468 255.98 18.4638 255.815 18.6131 255.699C18.917 255.464 19.2276 255.214 19.5068 254.986C20.0796 254.52 20.8197 253.903 21.7121 253.152C27.3081 248.441 33.1208 243.399 38.809 238.465C42.9451 234.877 47.0154 231.347 50.8886 228.042C56.9104 222.904 62.9018 217.737 68.8636 212.542C61.0421 222.095 53.4477 231.824 46.3788 241.722C46.0602 242.168 45.2785 243.292 44.6112 244.849C44.6053 244.862 44.5971 244.881 44.5869 244.904C44.2594 245.646 41.8491 251.107 44.8077 257.443C49.2776 267.015 59.5009 267.686 62.4699 267.568C65.5832 267.445 67.8956 266.611 68.4939 266.395L68.5046 266.391C70.1013 265.815 71.303 265.141 71.6361 264.954L71.6509 264.946C72.1771 264.651 72.6279 264.371 72.9382 264.174C74.0754 263.451 75.2483 262.602 75.8837 262.12C80.5495 258.581 82.3734 257.171 83.6101 256.214C85.8427 254.487 86.1612 254.241 97.8316 245.626C105.111 240.253 112.441 234.881 119.796 229.492C142.278 213.017 164.989 196.375 187.192 178.988C187.863 179.169 188.521 179.308 189.162 179.411C186.953 182.086 184.768 184.645 182.494 187.121C182.446 187.168 182.361 187.251 182.227 187.382C182.218 187.39 182.206 187.403 182.19 187.418C181.99 187.613 181.276 188.307 180.669 188.987C180.473 189.207 180.102 189.632 179.688 190.181C179.682 190.188 179.675 190.198 179.665 190.21C179.44 190.507 178.234 192.09 177.399 194.331C177.055 195.253 175.765 198.794 176.862 203.289C177.496 205.888 178.952 208.851 181.733 211.4C184.478 213.917 187.605 215.198 190.167 215.797C194.639 216.842 198.251 216.036 199.232 215.811C200.677 215.478 201.77 215.055 202.308 214.834C204.016 214.134 205.355 213.281 205.619 213.113C205.632 213.104 205.643 213.097 205.651 213.092C206.176 212.761 206.695 212.409 207.156 212.09C219.52 203.52 231.219 194.291 242.414 185.459L243.58 184.539C255.285 175.306 266.482 166.518 278.206 158.523C286.281 153.016 287.917 142.599 281.861 135.257C276.295 128.509 266.168 126.706 258.296 130.733C256.951 128.415 254.826 126.038 251.552 124.253C254.242 121.627 256.95 119.005 259.673 116.383C262.313 113.84 263.845 112.371 264.721 111.537C264.766 111.502 264.801 111.474 264.826 111.454L264.829 111.452C265.076 111.256 265.277 111.085 265.401 110.979C266.043 110.429 267.05 109.491 268.548 108.077C268.73 107.92 269.177 107.53 269.647 107.07C269.927 106.796 270.432 106.287 270.987 105.616C271.378 105.143 272.633 103.61 273.563 101.363C274.228 99.7534 276.952 92.2656 270.83 85.1749C265.318 78.7901 257.591 78.7901 256.355 78.7901C246.635 78.7901 241.354 84.9147 240.375 86.0507L240.343 86.0878C240.059 86.417 239.816 86.7174 239.637 86.9436C234.487 91.6512 229.488 96.4562 224.672 101.085C224.016 101.716 223.363 102.344 222.713 102.967C216.968 108.484 211.435 113.75 205.727 118.776C194.456 128.699 182.903 138.282 171.129 147.658C182.029 135.257 193.015 122.912 204.042 110.522C213.558 99.8295 223.105 89.1026 232.654 78.2747C233.494 77.3216 234.4 76.3092 235.352 75.2462C239.8 70.2766 245.241 64.1988 249.606 57.8776C249.968 57.3534 250.654 56.328 251.268 55.0356C251.566 54.4063 252.102 53.193 252.46 51.6101C252.736 50.3907 253.455 46.7228 251.713 42.4123C251.022 40.705 250.065 39.1758 248.908 37.8407C249.118 37.3069 249.442 36.4068 249.686 35.2927C249.689 35.2765 249.693 35.2572 249.698 35.2349C249.857 34.5273 250.698 30.7648 248.993 26.381C247.901 23.5763 245.554 20.0358 241.096 17.6193C236.781 15.2809 232.529 15.1043 229.831 15.3558C225.395 15.7696 222.337 17.5745 221.7 17.9503C221.683 17.9606 221.667 17.9698 221.653 17.978C219.86 19.0304 218.581 20.1925 218.241 20.501L218.214 20.5255C217.651 21.0362 217.043 21.6423 216.432 22.2797C215.436 22.8687 214.438 23.4557 213.438 24.0407C224.806 11.9173 235.919 -0.411964 246.679 -12.9911C247.442 -13.8833 248.25 -14.7727 249.193 -15.8103C249.542 -16.1937 249.908 -16.5973 250.298 -17.0287C250.343 -17.0787 250.391 -17.1319 250.442 -17.1883C251.426 -18.2757 253.443 -20.5048 254.773 -22.5845C255.162 -23.1943 256.007 -24.5652 256.644 -26.3824C256.649 -26.3979 256.656 -26.4152 256.662 -26.4344C257.012 -27.4234 259.109 -33.3544 255.272 -39.7218C250.139 -48.2401 240.697 -48.5651 237.927 -48.4205C234.843 -48.2594 232.48 -47.431 231.662 -47.1365C230.151 -46.5928 228.553 -45.8241 226.985 -44.9759ZM220.22 20.048C220.218 20.049 220.216 20.0505 220.213 20.0523C220.224 20.0457 220.227 20.044 220.22 20.048ZM117.681 121.221C114.123 123.685 110.583 126.172 107.059 128.68C104.157 131.41 101.257 134.135 98.361 136.857C96.1299 138.953 93.9011 141.048 91.6753 143.141C84.1896 150.179 76.7856 156.869 69.5258 163.429C61.7782 170.429 54.1949 177.282 46.8518 184.25C62.8827 170.262 78.9544 156.269 95.0943 142.315C102.667 135.326 110.196 128.293 117.681 121.221ZM147.092 41.9909C148.291 40.8023 149.488 39.6126 150.683 38.4217C149.048 39.2501 147.411 40.072 145.776 40.8879C146.23 41.2512 146.672 41.6216 147.092 41.9909ZM-4.61374 186.623C-4.62366 186.631 -4.63392 186.64 -4.64453 186.649C-4.81127 186.791 -4.7802 186.758 -4.61374 186.623ZM239.156 87.5626C239.113 87.6184 239.126 87.5972 239.19 87.5182L239.156 87.5626ZM243.355 83.9952L243.346 84.003C243.395 83.9599 243.404 83.9533 243.355 83.9952Z" fill="#212121"/>
<path fill-rule="evenodd" clip-rule="evenodd" d="M-9.19983 6.03362C-13.215 5.64831 -17.1166 4.05662 -20.1938 1.25854C-27.3312 -5.23133 -27.3312 -15.7535 -20.1938 -22.2433C-17.1691 -24.9936 -13.943 -26.7661 -11.768 -27.8613C-10.7174 -28.3903 -9.68373 -28.8708 -8.94034 -29.2164C-8.90409 -29.2332 -8.86854 -29.2498 -8.83371 -29.266C-7.98586 -29.6602 -7.48237 -29.8967 -7.05112 -30.1154C-4.98353 -31.1639 -2.71481 -32.3559 -0.31288 -33.6179C5.6991 -36.7766 12.5456 -40.3737 19.1615 -43.2562C28.8918 -47.4957 38.7827 -52.298 48.6036 -57.1911C48.6151 -57.1969 48.6536 -57.217 48.7162 -57.2497C49.3399 -57.5759 52.3639 -59.1571 55.074 -60.2934C56.6369 -60.9486 58.9243 -61.8263 61.5015 -62.4175C63.2705 -62.8234 69.014 -64.0763 75.2962 -61.7914C78.2939 -60.7011 82.6639 -58.2845 85.316 -53.4251C87.9313 -48.6332 87.4182 -44.1269 86.6996 -41.5261C85.566 -37.4235 82.9632 -34.555 82.4053 -33.9402C82.3814 -33.9138 82.3612 -33.8916 82.3451 -33.8736C81.5884 -33.0291 80.6917 -32.1535 80.3715 -31.8409C80.3703 -31.8397 80.369 -31.8384 80.3677 -31.8372C79.1259 -30.1888 77.8171 -28.5653 76.4668 -26.9727C82.3324 -29.7188 88.007 -32.6092 93.4908 -35.7944C93.8328 -36.077 94.3465 -36.5003 94.7481 -36.8191C95.0451 -37.055 95.5724 -37.4686 96.1817 -37.8947C96.4767 -38.101 97.0182 -38.4707 97.7101 -38.8714C97.7204 -38.8774 97.7326 -38.8845 97.7467 -38.8927C98.1447 -39.1248 100.043 -40.2313 102.711 -40.9151C103.948 -41.2322 107.71 -42.1077 112.363 -40.9941C118.551 -39.5132 123.292 -35.2594 125.152 -29.9343C126.553 -25.9221 125.879 -22.587 125.626 -21.4781C125.295 -20.0304 124.82 -18.9276 124.561 -18.3655C123.741 -16.5882 122.676 -15.1912 122.431 -14.8696C122.419 -14.854 122.409 -14.8409 122.402 -14.8304C121.921 -14.1952 121.421 -13.5711 120.908 -12.9602C121.016 -12.9612 121.124 -12.9614 121.233 -12.9608C123.348 -12.9483 128.681 -12.605 133.521 -8.74756C139.122 -4.28374 140.058 1.54695 139.811 5.06448C139.593 8.17136 138.488 10.4888 137.985 11.4638C136.32 14.6937 133.549 17.3948 132.636 18.2854C132.599 18.3209 132.566 18.3536 132.536 18.3833C130.159 20.7084 126.996 23.3962 125.353 24.7926C125.104 25.0043 124.89 25.1864 124.719 25.333C114.267 34.2813 102.962 42.5264 92.3374 50.2751C89.8183 52.1123 87.3375 53.9216 84.9154 55.7058C71.933 65.2688 60.1534 74.4384 50.1271 84.8574C43.4803 91.7646 31.934 92.4645 24.3376 86.4207C20.1971 83.1264 18.0847 78.5086 18.0961 73.8702C16.1727 74.9431 14.2441 76.0204 12.3089 77.1013C11.3583 77.6323 10.4061 78.1642 9.45217 78.6969C9.0132 78.942 8.36757 79.3204 7.46652 79.8486L7.38853 79.8944C6.66373 80.3194 5.62465 80.9286 4.7955 81.3805C4.79169 81.3825 4.78487 81.3863 4.77516 81.3917C4.58597 81.4965 3.30008 82.2091 1.82078 82.7685C1.44114 82.9121 0.0900517 83.4228 -1.72431 83.7489C-2.57755 83.9023 -4.58244 84.2165 -7.13371 83.9813C-9.53479 83.76 -15.1141 82.7711 -19.4344 77.9811C-23.9845 72.9364 -23.8294 67.4068 -23.3323 64.6971C-22.8526 62.0824 -21.7944 60.2104 -21.3452 59.4609C-20.3846 57.8581 -19.3397 56.7634 -19.0592 56.4696L-19.0531 56.4632C-17.954 55.3115 -16.7261 54.3734 -16.4418 54.1562C-16.4248 54.1433 -16.4112 54.1329 -16.4012 54.1252C-15.8406 53.6932 -15.1729 53.1998 -14.4321 52.6627C-13.6855 52.1213 -12.817 51.4708 -11.8544 50.7498C-8.68007 48.3721 -4.48236 45.228 -0.258142 42.7039C1.23767 41.8101 2.72247 40.9005 4.19705 39.9756C3.53376 40.216 2.87045 40.4536 2.20727 40.6883C1.40397 40.9726 -0.665361 41.6985 -3.13724 42.0222L-3.15911 42.025C-4.05661 42.1427 -7.72013 42.6229 -12.0064 41.277C-14.5239 40.4866 -17.9352 38.8441 -20.6619 35.5826C-23.4754 32.2173 -24.3909 28.5273 -24.4115 25.5632C-24.4452 20.7375 -22.161 17.3518 -21.6617 16.6117L-21.639 16.5781C-20.8118 15.3496 -19.974 14.4491 -19.5307 13.9917C-18.5994 13.0307 -17.6708 12.2604 -17.1428 11.8338C-15.3389 10.3766 -11.9255 8.0386 -12.4099 8.38684C-11.3306 7.6109 -10.2609 6.82645 -9.19983 6.03362ZM-13.9951 52.8717C-14.1858 52.9757 -14.1434 52.9454 -13.936 52.8392C-13.9575 52.8511 -13.9772 52.8619 -13.9951 52.8717ZM7.23061 79.4816C7.23176 79.4807 7.23291 79.4798 7.23408 79.4789C7.0312 79.6463 6.99176 79.6656 7.23061 79.4816ZM92.7759 -35.2149C92.7799 -35.2194 92.8428 -35.27 92.9526 -35.3528C92.8268 -35.2518 92.7719 -35.2103 92.7759 -35.2149ZM-11.0522 9.7155C-11.1981 9.76715 -11.1568 9.74542 -10.964 9.68427C-10.9934 9.69469 -11.0228 9.7051 -11.0522 9.7155ZM7.15151 36.6673C7.10141 36.7094 7.09229 36.7151 7.13535 36.6803C7.14074 36.6759 7.14613 36.6716 7.15151 36.6673ZM80.0089 -31.4771C80.0074 -31.4761 80.0274 -31.4976 80.0734 -31.5446C80.0335 -31.5017 80.0105 -31.4782 80.0089 -31.4771Z" stroke="url(#paint0_linear_26644_8026)" stroke-linecap="round"/>
<path fill-rule="evenodd" clip-rule="evenodd" d="M226.985 -44.9759C227 -45.0083 227.016 -45.041 227.031 -45.0738C227.309 -45.6701 228.108 -47.4176 228.462 -49.7086C228.636 -50.839 228.889 -53.209 228.125 -56.0809C227.272 -59.2865 224.949 -63.6207 219.768 -66.4761C214.974 -69.1182 210.307 -69.0521 207.857 -68.7697C205.369 -68.4831 203.483 -67.7993 202.511 -67.4066C198.487 -65.7803 195.71 -63.3117 194.392 -62.0684C192.823 -60.5868 191.484 -59.0367 190.527 -57.884C189.841 -57.0583 189.089 -56.111 188.539 -55.4185C188.353 -55.1839 188.19 -54.9785 188.06 -54.817C187.598 -54.2404 187.389 -53.9993 187.354 -53.9561C186.479 -53.0939 185.607 -52.2342 184.738 -51.3771C180.898 -47.592 177.11 -43.8576 173.325 -40.1778C171.934 -39.1021 170.51 -38.0104 169.055 -36.8948C166.357 -34.8263 163.552 -32.6759 160.652 -30.3937C152.726 -24.155 144.798 -18.1396 136.723 -12.0135C132.445 -8.76779 128.126 -5.49099 123.745 -2.13338C118.102 2.19083 111.555 7.47502 105.98 14.3707C105.743 14.6629 105.464 14.9863 104.997 15.5261C104.693 15.8781 104.31 16.3221 103.806 16.9096C102.736 18.1595 101.367 19.7868 100.025 21.5547C98.7222 23.2709 97.1697 25.4763 95.8841 27.9017C95.1577 29.2721 94.1087 31.4481 93.4718 34.1386C93.1528 34.492 92.835 34.846 92.5186 35.2006C86.1583 42.3274 87.3562 52.793 95.194 58.5762C96.9224 59.8515 98.8294 60.7926 100.82 61.4085C95.761 66.6276 90.8735 71.7034 87.8305 74.9163C85.3187 77.5684 82.8026 80.2232 80.2835 82.8812C54.7336 109.839 28.8783 137.12 4.14303 165.142C4.087 165.205 4.02825 165.272 3.9673 165.343C3.87018 165.425 3.78306 165.498 3.70672 165.563C3.63299 165.626 3.44021 165.79 3.23886 165.97C3.18003 166.023 3.07226 166.12 2.9415 166.241L2.93433 166.248C2.85659 166.321 2.50856 166.645 2.10402 167.077L2.09072 167.091C1.94895 167.242 1.26997 167.965 0.569767 168.972C0.11116 169.669 -1.02718 171.857 -1.58513 173.384C-1.75452 174.386 -1.62758 175.836 -1.23694 177.519C-1.22209 178.476 -1.11646 179.538 -0.859226 180.664C-0.791393 180.961 -0.709955 181.275 -0.612524 181.603C-2.80663 183.942 -5.31187 186.677 -7.41211 189.33C-7.57518 189.536 -8.03683 190.123 -8.52877 190.911C-8.75711 191.276 -9.26413 192.114 -9.73586 193.245C-9.74157 193.258 -9.74901 193.276 -9.75803 193.297C-10.0124 193.894 -11.5186 197.429 -10.6628 201.962C-10.1086 204.897 -8.42156 208.861 -4.28728 211.966C-0.297506 214.963 4.00059 215.673 6.68807 215.762C8.51498 215.823 10.1441 215.621 11.4684 215.346C9.72352 216.892 8.02461 218.401 6.41233 219.835C1.36693 224.323 -2.96378 228.202 -5.17617 230.243C-5.70321 230.729 -6.27699 231.264 -6.73497 231.716L-6.74269 231.724C-6.82899 231.808 -7.54875 232.509 -8.24075 233.363C-8.42004 233.584 -9.02911 234.338 -9.64722 235.384C-9.929 235.862 -10.5984 237.037 -11.11 238.65L-11.1198 238.68C-11.4189 239.621 -12.9746 244.516 -10.2106 250.09C-6.24784 258.082 2.07135 259.846 6.29561 259.879C9.80709 259.907 12.4108 258.987 13.102 258.742C14.8632 258.118 16.1301 257.368 16.4109 257.202L16.4346 257.188C17.2265 256.721 17.8272 256.285 17.9837 256.171L17.9943 256.164C18.2468 255.98 18.4638 255.815 18.6131 255.699C18.917 255.464 19.2276 255.214 19.5068 254.986C20.0796 254.52 20.8197 253.903 21.7121 253.152C27.3081 248.441 33.1208 243.399 38.809 238.465C42.9451 234.877 47.0154 231.347 50.8886 228.042C56.9104 222.904 62.9018 217.737 68.8636 212.542C61.0421 222.095 53.4477 231.824 46.3788 241.722C46.0602 242.168 45.2785 243.292 44.6112 244.849C44.6053 244.862 44.5971 244.881 44.5869 244.904C44.2594 245.646 41.8491 251.107 44.8077 257.443C49.2776 267.015 59.5009 267.686 62.4699 267.568C65.5832 267.445 67.8956 266.611 68.4939 266.395L68.5046 266.391C70.1013 265.815 71.303 265.141 71.6361 264.954L71.6509 264.946C72.1771 264.651 72.6279 264.371 72.9382 264.174C74.0754 263.451 75.2483 262.602 75.8837 262.12C80.5495 258.581 82.3734 257.171 83.6101 256.214C85.8427 254.487 86.1612 254.241 97.8316 245.626C105.111 240.253 112.441 234.881 119.796 229.492C142.278 213.017 164.989 196.375 187.192 178.988C187.863 179.169 188.521 179.308 189.162 179.411C186.953 182.086 184.768 184.645 182.494 187.121C182.446 187.168 182.361 187.251 182.227 187.382C182.218 187.39 182.206 187.403 182.19 187.418C181.99 187.613 181.276 188.307 180.669 188.987C180.473 189.207 180.102 189.632 179.688 190.181C179.682 190.188 179.675 190.198 179.665 190.21C179.44 190.507 178.234 192.09 177.399 194.331C177.055 195.253 175.765 198.794 176.862 203.289C177.496 205.888 178.952 208.851 181.733 211.4C184.478 213.917 187.605 215.198 190.167 215.797C194.639 216.842 198.251 216.036 199.232 215.811C200.677 215.478 201.77 215.055 202.308 214.834C204.016 214.134 205.355 213.281 205.619 213.113C205.632 213.104 205.643 213.097 205.651 213.092C206.176 212.761 206.695 212.409 207.156 212.09C219.52 203.52 231.219 194.291 242.414 185.459L243.58 184.539C255.285 175.306 266.482 166.518 278.206 158.523C286.281 153.016 287.917 142.599 281.861 135.257C276.295 128.509 266.168 126.706 258.296 130.733C256.951 128.415 254.826 126.038 251.552 124.253C254.242 121.627 256.95 119.005 259.673 116.383C262.313 113.84 263.845 112.371 264.721 111.537C264.766 111.502 264.801 111.474 264.826 111.454L264.829 111.452C265.076 111.256 265.277 111.085 265.401 110.979C266.043 110.429 267.05 109.491 268.548 108.077C268.73 107.92 269.177 107.53 269.647 107.07C269.927 106.796 270.432 106.287 270.987 105.616C271.378 105.143 272.633 103.61 273.563 101.363C274.228 99.7534 276.952 92.2656 270.83 85.1749C265.318 78.7901 257.591 78.7901 256.355 78.7901C246.635 78.7901 241.354 84.9147 240.375 86.0507L240.343 86.0878C240.059 86.417 239.816 86.7174 239.637 86.9436C234.487 91.6512 229.488 96.4562 224.672 101.085C224.016 101.716 223.363 102.344 222.713 102.967C216.968 108.484 211.435 113.75 205.727 118.776C194.456 128.699 182.903 138.282 171.129 147.658C182.029 135.257 193.015 122.912 204.042 110.522C213.558 99.8295 223.105 89.1026 232.654 78.2747C233.494 77.3216 234.4 76.3092 235.352 75.2462C239.8 70.2766 245.241 64.1988 249.606 57.8776C249.968 57.3534 250.654 56.328 251.268 55.0356C251.566 54.4063 252.102 53.193 252.46 51.6101C252.736 50.3907 253.455 46.7228 251.713 42.4123C251.022 40.705 250.065 39.1758 248.908 37.8407C249.118 37.3069 249.442 36.4068 249.686 35.2927C249.689 35.2765 249.693 35.2572 249.698 35.2349C249.857 34.5273 250.698 30.7648 248.993 26.381C247.901 23.5763 245.554 20.0358 241.096 17.6193C236.781 15.2809 232.529 15.1043 229.831 15.3558C225.395 15.7696 222.337 17.5745 221.7 17.9503C221.683 17.9606 221.667 17.9698 221.653 17.978C219.86 19.0304 218.581 20.1925 218.241 20.501L218.214 20.5255C217.651 21.0362 217.043 21.6423 216.432 22.2797C215.436 22.8687 214.438 23.4557 213.438 24.0407C224.806 11.9173 235.919 -0.411964 246.679 -12.9911C247.442 -13.8833 248.25 -14.7727 249.193 -15.8103C249.542 -16.1937 249.908 -16.5973 250.298 -17.0287C250.343 -17.0787 250.391 -17.1319 250.442 -17.1883C251.426 -18.2757 253.443 -20.5048 254.773 -22.5845C255.162 -23.1943 256.007 -24.5652 256.644 -26.3824C256.649 -26.3979 256.656 -26.4152 256.662 -26.4344C257.012 -27.4234 259.109 -33.3544 255.272 -39.7218C250.139 -48.2401 240.697 -48.5651 237.927 -48.4205C234.843 -48.2594 232.48 -47.431 231.662 -47.1365C230.151 -46.5928 228.553 -45.8241 226.985 -44.9759ZM220.22 20.048C220.218 20.049 220.216 20.0505 220.213 20.0523C220.224 20.0457 220.227 20.044 220.22 20.048ZM117.681 121.221C114.123 123.685 110.583 126.172 107.059 128.68C104.157 131.41 101.257 134.135 98.361 136.857C96.1299 138.953 93.9011 141.048 91.6753 143.141C84.1896 150.179 76.7856 156.869 69.5258 163.429C61.7782 170.429 54.1949 177.282 46.8518 184.25C62.8827 170.262 78.9544 156.269 95.0943 142.315C102.667 135.326 110.196 128.293 117.681 121.221ZM147.092 41.9909C148.291 40.8023 149.488 39.6126 150.683 38.4217C149.048 39.2501 147.411 40.072 145.776 40.8879C146.23 41.2512 146.672 41.6216 147.092 41.9909ZM-4.61374 186.623C-4.62366 186.631 -4.63392 186.64 -4.64453 186.649C-4.81127 186.791 -4.7802 186.758 -4.61374 186.623ZM239.156 87.5626C239.113 87.6184 239.126 87.5972 239.19 87.5182L239.156 87.5626ZM243.355 83.9952L243.346 84.003C243.395 83.9599 243.404 83.9533 243.355 83.9952Z" stroke="url(#paint1_linear_26644_8026)" stroke-linecap="round"/>
</mask>
<g mask="url(#mask0_26644_8026)">
<mask id="path-2-outside-1_26644_8026" maskUnits="userSpaceOnUse" x="3.29199" y="2.875" width="264" height="114" fill="black">
<rect fill="white" x="3.29199" y="2.875" width="264" height="114"/>
<path d="M12.6103 95.8937V73.8274H90.798V95.8937H12.6103ZM4.44402 95.8937V68.9624L46.3179 4.32715H76.898L17.8228 95.8937H4.44402ZM50.4879 51.761H78.983V115.875H50.4879V51.761ZM171.39 25.8722V94.3299C171.39 100.817 169.421 106.029 165.482 109.967C161.66 113.906 155.115 115.875 145.848 115.875H122.74C113.473 115.875 106.87 113.906 102.932 109.967C99.1095 106.029 97.1983 100.817 97.1983 94.3299V25.8722C97.1983 19.3855 99.1095 14.173 102.932 10.2347C106.87 6.29633 113.473 4.32715 122.74 4.32715H145.848C155.115 4.32715 161.66 6.29633 165.482 10.2347C169.421 14.173 171.39 19.3855 171.39 25.8722ZM140.983 90.3337V29.8685C140.983 28.5943 140.636 27.6676 139.941 27.0885C139.246 26.3935 138.146 26.046 136.64 26.046H131.948C130.443 26.046 129.342 26.3935 128.647 27.0885C127.952 27.6676 127.605 28.5943 127.605 29.8685V90.3337C127.605 91.6078 127.952 92.5924 128.647 93.2874C129.342 93.8666 130.443 94.1562 131.948 94.1562H136.64C138.146 94.1562 139.246 93.8666 139.941 93.2874C140.636 92.5924 140.983 91.6078 140.983 90.3337ZM187.718 95.8937V73.8274H265.906V95.8937H187.718ZM179.552 95.8937V68.9624L221.426 4.32715H252.006L192.931 95.8937H179.552ZM225.596 51.761H254.091V115.875H225.596V51.761Z"/>
</mask>
<path d="M12.6103 95.8937V73.8274H90.798V95.8937H12.6103ZM4.44402 95.8937V68.9624L46.3179 4.32715H76.898L17.8228 95.8937H4.44402ZM50.4879 51.761H78.983V115.875H50.4879V51.761ZM171.39 25.8722V94.3299C171.39 100.817 169.421 106.029 165.482 109.967C161.66 113.906 155.115 115.875 145.848 115.875H122.74C113.473 115.875 106.87 113.906 102.932 109.967C99.1095 106.029 97.1983 100.817 97.1983 94.3299V25.8722C97.1983 19.3855 99.1095 14.173 102.932 10.2347C106.87 6.29633 113.473 4.32715 122.74 4.32715H145.848C155.115 4.32715 161.66 6.29633 165.482 10.2347C169.421 14.173 171.39 19.3855 171.39 25.8722ZM140.983 90.3337V29.8685C140.983 28.5943 140.636 27.6676 139.941 27.0885C139.246 26.3935 138.146 26.046 136.64 26.046H131.948C130.443 26.046 129.342 26.3935 128.647 27.0885C127.952 27.6676 127.605 28.5943 127.605 29.8685V90.3337C127.605 91.6078 127.952 92.5924 128.647 93.2874C129.342 93.8666 130.443 94.1562 131.948 94.1562H136.64C138.146 94.1562 139.246 93.8666 139.941 93.2874C140.636 92.5924 140.983 91.6078 140.983 90.3337ZM187.718 95.8937V73.8274H265.906V95.8937H187.718ZM179.552 95.8937V68.9624L221.426 4.32715H252.006L192.931 95.8937H179.552ZM225.596 51.761H254.091V115.875H225.596V51.761Z" fill="url(#paint2_linear_26644_8026)"/>
<path d="M12.6103 95.8937H11.6103V96.8937H12.6103V95.8937ZM12.6103 73.8274V72.8274H11.6103V73.8274H12.6103ZM90.798 73.8274H91.798V72.8274H90.798V73.8274ZM90.798 95.8937V96.8937H91.798V95.8937H90.798ZM4.44402 95.8937H3.44402V96.8937H4.44402V95.8937ZM4.44402 68.9624L3.60475 68.4186L3.44402 68.6667V68.9624H4.44402ZM46.3179 4.32715V3.32715H45.7742L45.4786 3.78343L46.3179 4.32715ZM76.898 4.32715L77.7383 4.86928L78.7332 3.32715H76.898V4.32715ZM17.8228 95.8937V96.8937H18.3677L18.6631 96.4358L17.8228 95.8937ZM50.4879 51.761V50.761H49.4879V51.761H50.4879ZM78.983 51.761H79.983V50.761H78.983V51.761ZM78.983 115.875V116.875H79.983V115.875H78.983ZM50.4879 115.875H49.4879V116.875H50.4879V115.875ZM13.6103 95.8937V73.8274H11.6103V95.8937H13.6103ZM12.6103 74.8274H90.798V72.8274H12.6103V74.8274ZM89.798 73.8274V95.8937H91.798V73.8274H89.798ZM90.798 94.8937H12.6103V96.8937H90.798V94.8937ZM5.44402 95.8937V68.9624H3.44402V95.8937H5.44402ZM5.28329 69.5061L47.1572 4.87087L45.4786 3.78343L3.60475 68.4186L5.28329 69.5061ZM46.3179 5.32715H76.898V3.32715H46.3179V5.32715ZM76.0577 3.78503L16.9825 95.3516L18.6631 96.4358L77.7383 4.86928L76.0577 3.78503ZM17.8228 94.8937H4.44402V96.8937H17.8228V94.8937ZM50.4879 52.761H78.983V50.761H50.4879V52.761ZM77.983 51.761V115.875H79.983V51.761H77.983ZM78.983 114.875H50.4879V116.875H78.983V114.875ZM51.4879 115.875V51.761H49.4879V115.875H51.4879ZM165.482 109.967L164.775 109.26L164.77 109.266L164.765 109.271L165.482 109.967ZM102.932 109.967L102.214 110.664L102.22 110.669L102.225 110.675L102.932 109.967ZM102.932 10.2347L102.225 9.52756L102.22 9.53284L102.214 9.53819L102.932 10.2347ZM165.482 10.2347L164.765 10.9311L164.77 10.9365L164.775 10.9418L165.482 10.2347ZM139.941 27.0885L139.234 27.7956L139.266 27.8277L139.301 27.8567L139.941 27.0885ZM128.647 27.0885L129.287 27.8567L129.322 27.8277L129.354 27.7956L128.647 27.0885ZM128.647 93.2874L127.94 93.9945L127.972 94.0266L128.007 94.0556L128.647 93.2874ZM139.941 93.2874L140.581 94.0556L140.616 94.0266L140.648 93.9945L139.941 93.2874ZM170.39 25.8722V94.3299H172.39V25.8722H170.39ZM170.39 94.3299C170.39 100.599 168.495 105.54 164.775 109.26L166.189 110.675C170.346 106.518 172.39 101.035 172.39 94.3299H170.39ZM164.765 109.271C161.225 112.918 155.021 114.875 145.848 114.875V116.875C155.21 116.875 162.094 114.894 166.2 110.664L164.765 109.271ZM145.848 114.875H122.74V116.875H145.848V114.875ZM122.74 114.875C113.572 114.875 107.298 112.919 103.639 109.26L102.225 110.675C106.443 114.892 113.374 116.875 122.74 116.875V114.875ZM103.65 109.271C100.041 105.553 98.1983 100.607 98.1983 94.3299H96.1983C96.1983 101.026 98.1784 106.506 102.214 110.664L103.65 109.271ZM98.1983 94.3299V25.8722H96.1983V94.3299H98.1983ZM98.1983 25.8722C98.1983 19.5949 100.041 14.6495 103.65 10.9311L102.214 9.53819C98.1784 13.6966 96.1983 19.1761 96.1983 25.8722H98.1983ZM103.639 10.9418C107.298 7.28272 113.572 5.32715 122.74 5.32715V3.32715C113.374 3.32715 106.443 5.30993 102.225 9.52756L103.639 10.9418ZM122.74 5.32715H145.848V3.32715H122.74V5.32715ZM145.848 5.32715C155.021 5.32715 161.225 7.28441 164.765 10.9311L166.2 9.53819C162.094 5.30824 155.21 3.32715 145.848 3.32715V5.32715ZM164.775 10.9418C168.495 14.6617 170.39 19.6036 170.39 25.8722H172.39C172.39 19.1675 170.346 13.6844 166.189 9.52756L164.775 10.9418ZM141.983 90.3337V29.8685H139.983V90.3337H141.983ZM141.983 29.8685C141.983 28.424 141.586 27.1577 140.581 26.3203L139.301 27.8567C139.686 28.1776 139.983 28.7646 139.983 29.8685H141.983ZM140.648 26.3814C139.686 25.4196 138.272 25.046 136.64 25.046V27.046C138.019 27.046 138.806 27.3673 139.234 27.7956L140.648 26.3814ZM136.64 25.046H131.948V27.046H136.64V25.046ZM131.948 25.046C130.316 25.046 128.902 25.4196 127.94 26.3814L129.354 27.7956C129.783 27.3673 130.57 27.046 131.948 27.046V25.046ZM128.007 26.3202C127.002 27.1577 126.605 28.424 126.605 29.8685H128.605C128.605 28.7646 128.902 28.1776 129.287 27.8567L128.007 26.3202ZM126.605 29.8685V90.3337H128.605V29.8685H126.605ZM126.605 90.3337C126.605 91.7911 127.007 93.061 127.94 93.9945L129.354 92.5803C128.898 92.1238 128.605 91.4246 128.605 90.3337H126.605ZM128.007 94.0556C128.967 94.8561 130.352 95.1562 131.948 95.1562V93.1562C130.533 93.1562 129.717 92.8771 129.287 92.5192L128.007 94.0556ZM131.948 95.1562H136.64V93.1562H131.948V95.1562ZM136.64 95.1562C138.236 95.1562 139.621 94.8561 140.581 94.0556L139.301 92.5192C138.871 92.8771 138.055 93.1562 136.64 93.1562V95.1562ZM140.648 93.9945C141.582 93.061 141.983 91.7911 141.983 90.3337H139.983C139.983 91.4246 139.69 92.1238 139.234 92.5803L140.648 93.9945ZM187.718 95.8937H186.718V96.8937H187.718V95.8937ZM187.718 73.8274V72.8274H186.718V73.8274H187.718ZM265.906 73.8274H266.906V72.8274H265.906V73.8274ZM265.906 95.8937V96.8937H266.906V95.8937H265.906ZM179.552 95.8937H178.552V96.8937H179.552V95.8937ZM179.552 68.9624L178.713 68.4186L178.552 68.6667V68.9624H179.552ZM221.426 4.32715V3.32715H220.882L220.587 3.78343L221.426 4.32715ZM252.006 4.32715L252.846 4.86928L253.841 3.32715H252.006V4.32715ZM192.931 95.8937V96.8937H193.476L193.771 96.4358L192.931 95.8937ZM225.596 51.761V50.761H224.596V51.761H225.596ZM254.091 51.761H255.091V50.761H254.091V51.761ZM254.091 115.875V116.875H255.091V115.875H254.091ZM225.596 115.875H224.596V116.875H225.596V115.875ZM188.718 95.8937V73.8274H186.718V95.8937H188.718ZM187.718 74.8274H265.906V72.8274H187.718V74.8274ZM264.906 73.8274V95.8937H266.906V73.8274H264.906ZM265.906 94.8937H187.718V96.8937H265.906V94.8937ZM180.552 95.8937V68.9624H178.552V95.8937H180.552ZM180.391 69.5061L222.265 4.87087L220.587 3.78343L178.713 68.4186L180.391 69.5061ZM221.426 5.32715H252.006V3.32715H221.426V5.32715ZM251.166 3.78503L192.09 95.3516L193.771 96.4358L252.846 4.86928L251.166 3.78503ZM192.931 94.8937H179.552V96.8937H192.931V94.8937ZM225.596 52.761H254.091V50.761H225.596V52.761ZM253.091 51.761V115.875H255.091V51.761H253.091ZM254.091 114.875H225.596V116.875H254.091V114.875ZM226.596 115.875V51.761H224.596V115.875H226.596Z" fill="url(#paint3_linear_26644_8026)" mask="url(#path-2-outside-1_26644_8026)"/>
</g>
</g>
<defs>
<linearGradient id="paint0_linear_26644_8026" x1="276.368" y1="-17.8293" x2="-40.6312" y2="4.35434" gradientUnits="userSpaceOnUse">
<stop stop-color="#D6BC9E"/>
<stop offset="0.494792" stop-color="#FFEEC0"/>
<stop offset="0.994792" stop-color="#D6BC9E"/>
</linearGradient>
<linearGradient id="paint1_linear_26644_8026" x1="276.368" y1="-17.8293" x2="-40.6312" y2="4.35434" gradientUnits="userSpaceOnUse">
<stop stop-color="#D6BC9E"/>
<stop offset="0.494792" stop-color="#FFEEC0"/>
<stop offset="0.994792" stop-color="#D6BC9E"/>
</linearGradient>
<linearGradient id="paint2_linear_26644_8026" x1="258.527" y1="37.6607" x2="-2.20045" y2="87.7613" gradientUnits="userSpaceOnUse">
<stop stop-color="#D6BC9E"/>
<stop offset="0.494792" stop-color="#FFEEC0"/>
<stop offset="0.994792" stop-color="#D6BC9E"/>
</linearGradient>
<linearGradient id="paint3_linear_26644_8026" x1="258.527" y1="37.6607" x2="-2.20045" y2="87.7613" gradientUnits="userSpaceOnUse">
<stop stop-color="#D6BC9E"/>
<stop offset="0.494792" stop-color="#FFEEC0"/>
<stop offset="0.994792" stop-color="#D6BC9E"/>
</linearGradient>
<clipPath id="clip0_26644_8026">
<rect width="269" height="120" fill="white" transform="translate(0.453125 0.0976562)"/>
</clipPath>
</defs>
</svg>
