<svg width="20" height="19" viewBox="0 0 20 19" fill="none" xmlns="http://www.w3.org/2000/svg">
<mask id="path-1-inside-1_28005_49107" fill="white">
<path fill-rule="evenodd" clip-rule="evenodd" d="M10 1L11.3302 1.76797C11.0206 2.73929 11.5729 3.93169 12.6924 4.57807C13.812 5.22445 15.1208 5.10654 15.8072 4.35277L17.3612 5.25L10.3612 17.3744L8.8096 16.4785C9.11701 15.5078 8.56471 14.3172 7.44635 13.6715C6.32798 13.0259 5.0208 13.1428 4.33381 13.8944L3 13.1244L10 1Z"/>
</mask>
<path fill-rule="evenodd" clip-rule="evenodd" d="M10 1L11.3302 1.76797C11.0206 2.73929 11.5729 3.93169 12.6924 4.57807C13.812 5.22445 15.1208 5.10654 15.8072 4.35277L17.3612 5.25L10.3612 17.3744L8.8096 16.4785C9.11701 15.5078 8.56471 14.3172 7.44635 13.6715C6.32798 13.0259 5.0208 13.1428 4.33381 13.8944L3 13.1244L10 1Z" fill="#FFDEA8"/>
<path d="M11.3302 1.76797L12.2829 2.07165L12.5274 1.30452L11.8302 0.901945L11.3302 1.76797ZM10 1L10.5 0.133974L9.63397 -0.366026L9.13397 0.5L10 1ZM15.8072 4.35277L16.3072 3.48675L15.6099 3.08417L15.0678 3.67948L15.8072 4.35277ZM17.3612 5.25L18.2272 5.75L18.7272 4.88397L17.8612 4.38397L17.3612 5.25ZM10.3612 17.3744L9.86122 18.2404L10.7272 18.7404L11.2272 17.8744L10.3612 17.3744ZM8.8096 16.4785L7.85626 16.1766L7.61365 16.9427L8.3096 17.3446L8.8096 16.4785ZM4.33381 13.8944L3.83381 14.7605L4.52976 15.1623L5.07193 14.5691L4.33381 13.8944ZM3 13.1244L2.13398 12.6244L1.63398 13.4904L2.5 13.9904L3 13.1244ZM11.8302 0.901945L10.5 0.133974L9.5 1.86603L10.8302 2.634L11.8302 0.901945ZM13.1924 3.71204C12.3607 3.23185 12.1541 2.47588 12.2829 2.07165L10.3774 1.46429C9.88705 3.0027 10.785 4.63153 12.1924 5.44409L13.1924 3.71204ZM15.0678 3.67948C14.7821 3.99318 14.0241 4.19224 13.1924 3.71204L12.1924 5.44409C13.5998 6.25666 15.4594 6.21991 16.5466 5.02606L15.0678 3.67948ZM17.8612 4.38397L16.3072 3.48675L15.3072 5.2188L16.8612 6.11603L17.8612 4.38397ZM11.2272 17.8744L18.2272 5.75L16.4952 4.75L9.49519 16.8744L11.2272 17.8744ZM8.3096 17.3446L9.86122 18.2404L10.8612 16.5083L9.3096 15.6125L8.3096 17.3446ZM6.94635 14.5376C7.77701 15.0172 7.98434 15.7722 7.85626 16.1766L9.76294 16.7804C10.2497 15.2434 9.35242 13.6173 7.94635 12.8055L6.94635 14.5376ZM5.07193 14.5691C5.35816 14.2559 6.11569 14.058 6.94635 14.5376L7.94635 12.8055C6.54028 11.9937 4.68343 12.0297 3.59568 13.2198L5.07193 14.5691ZM2.5 13.9904L3.83381 14.7605L4.83381 13.0284L3.5 12.2583L2.5 13.9904ZM9.13397 0.5L2.13398 12.6244L3.86603 13.6244L10.866 1.5L9.13397 0.5Z" fill="#FFDEA8" mask="url(#path-1-inside-1_28005_49107)"/>
</svg>
