<svg width="17" height="16" viewBox="0 0 17 16" fill="none" xmlns="http://www.w3.org/2000/svg">
<path d="M8.5 7.344C11.14 4.944 12.5 3.712 12.5 2.152C12.5 0.952 11.5 0 10.3 0C9.612 0 8.956 0.288 8.5 0.8C8.044 0.288 7.388 0 6.652 0C5.452 0 4.5 1 4.5 2.2C4.5 3.712 5.86 4.944 8.5 7.344ZM7.844 8C5.444 5.36 4.212 4 2.652 4C1.452 4 0.5 5 0.5 6.2C0.5 6.888 0.788 7.544 1.3 8C0.788 8.456 0.5 9.112 0.5 9.848C0.5 11.048 1.5 12 2.7 12C4.212 12 5.444 10.64 7.844 8ZM9.164 8C11.556 10.64 12.788 12 14.348 12C15.548 12 16.5 11 16.5 9.8C16.5 9.112 16.212 8.456 15.7 8C16.212 7.544 16.5 6.888 16.5 6.152C16.5 4.952 15.5 4 14.3 4C12.788 4 11.556 5.36 9.164 8ZM8.5 8.656C5.86 11.056 4.5 12.288 4.5 13.848C4.5 15.048 5.5 16 6.7 16C7.388 16 8.044 15.712 8.5 15.2C8.956 15.712 9.612 16 10.348 16C11.548 16 12.5 15 12.5 13.8C12.5 12.288 11.14 11.056 8.5 8.656Z" fill="#FFDEA8"/>
</svg>
