<svg width="15" height="15" viewBox="0 0 15 15" fill="none" xmlns="http://www.w3.org/2000/svg">
<path d="M1.87429 14.5106C2.64863 14.5106 3.27636 13.8683 3.27636 13.0759C3.27636 12.2836 2.64863 11.6413 1.87429 11.6413C1.09995 11.6413 0.472224 12.2836 0.472224 13.0759C0.472224 13.8683 1.09995 14.5106 1.87429 14.5106Z" fill="url(#paint0_linear_26576_36587)"/>
<path d="M12.6734 3.46067C13.4477 3.46067 14.0754 2.81836 14.0754 2.02603C14.0754 1.2337 13.4477 0.591385 12.6734 0.591385C11.899 0.591385 11.2713 1.2337 11.2713 2.02603C11.2713 2.81836 11.899 3.46067 12.6734 3.46067Z" fill="url(#paint1_linear_26576_36587)"/>
<path d="M10.4109 11.0356L7.88098 8.44687C7.81243 8.37673 7.73765 8.32572 7.65041 8.28747L7.97445 11.5903C8.01184 11.9602 7.74389 12.2917 7.38246 12.33C7.18929 12.3555 6.99612 12.279 6.85279 12.1387C6.70947 11.9984 6.6347 11.788 6.66585 11.5776L7.05843 8.26196C6.9525 8.30022 6.84656 8.36398 6.76555 8.44687L4.2356 11.0356C3.93026 11.348 3.93026 11.8581 4.2356 12.1769L6.76555 14.7657C7.07089 15.0781 7.56941 15.0781 7.88098 14.7657L10.4109 12.1769C10.7163 11.8645 10.7163 11.3544 10.4109 11.0356Z" fill="url(#paint2_linear_26576_36587)"/>
<path d="M10.7847 4.34055L8.25476 6.92929C8.18622 6.99943 8.13637 7.07594 8.09898 7.16521L11.3268 6.83364C11.6883 6.79539 12.0123 7.06956 12.0497 7.43938C12.0746 7.63704 11.9998 7.83471 11.8627 7.98136C11.7257 8.12801 11.52 8.20452 11.3144 8.17264L8.07405 7.77094C8.11144 7.87934 8.17375 7.98773 8.25476 8.07063L10.7847 10.6594C11.0901 10.9718 11.5886 10.9718 11.9001 10.6594L14.4301 8.07063C14.7354 7.75819 14.7354 7.2481 14.4301 6.92929L11.9001 4.34055C11.5948 4.02812 11.0963 4.02812 10.7847 4.34055Z" fill="url(#paint3_linear_26576_36587)"/>
<path d="M3.87438 4.34055L6.40433 6.92929C6.47287 6.99943 6.52272 7.07594 6.56011 7.16521L3.33224 6.83364C2.97082 6.79539 2.64679 7.06956 2.6094 7.43938C2.58448 7.63704 2.65925 7.83471 2.79634 7.98136C2.93343 8.12801 3.13907 8.20452 3.34471 8.17264L6.58504 7.77094C6.54765 7.87934 6.48534 7.98773 6.40433 8.07063L3.87438 10.6594C3.56904 10.9718 3.07053 10.9718 2.75896 10.6594L0.229004 8.07063C-0.0763347 7.75819 -0.0763347 7.2481 0.229004 6.92929L2.75896 4.34055C3.06429 4.02812 3.56281 4.02812 3.87438 4.34055Z" fill="url(#paint4_linear_26576_36587)"/>
<path d="M10.4109 3.9644L7.88098 6.55313C7.81243 6.62327 7.73765 6.67428 7.65041 6.71253L7.97445 3.40967C8.01184 3.03985 7.74389 2.70829 7.38246 2.67003C7.18929 2.64452 6.99612 2.72104 6.85279 2.86132C6.70947 3.00159 6.6347 3.21201 6.66585 3.42242L7.05843 6.73804C6.9525 6.69978 6.84656 6.63602 6.76555 6.55313L4.2356 3.9644C3.93026 3.65196 3.93026 3.14187 4.2356 2.82306L6.77179 0.234325C7.07713 -0.0781083 7.57564 -0.0781083 7.88721 0.234325L10.4172 2.82306C10.7225 3.13549 10.7225 3.64559 10.4172 3.9644H10.4109Z" fill="url(#paint5_linear_26576_36587)"/>
<path d="M12.6734 14.4022C13.4477 14.4022 14.0754 13.7599 14.0754 12.9676C14.0754 12.1753 13.4477 11.5329 12.6734 11.5329C11.899 11.5329 11.2713 12.1753 11.2713 12.9676C11.2713 13.7599 11.899 14.4022 12.6734 14.4022Z" fill="url(#paint6_linear_26576_36587)"/>
<path d="M1.98018 3.46067C2.75452 3.46067 3.38224 2.81836 3.38224 2.02603C3.38224 1.2337 2.75452 0.591385 1.98018 0.591385C1.20584 0.591385 0.578109 1.2337 0.578109 2.02603C0.578109 2.81836 1.20584 3.46067 1.98018 3.46067Z" fill="url(#paint7_linear_26576_36587)"/>
<defs>
<linearGradient id="paint0_linear_26576_36587" x1="14.2279" y1="2.27678" x2="-0.702309" y2="3.38129" gradientUnits="userSpaceOnUse">
<stop stop-color="#D6BC9E"/>
<stop offset="0.494792" stop-color="#FFEEC0"/>
<stop offset="0.994792" stop-color="#D6BC9E"/>
</linearGradient>
<linearGradient id="paint1_linear_26576_36587" x1="14.2279" y1="2.27678" x2="-0.702309" y2="3.38129" gradientUnits="userSpaceOnUse">
<stop stop-color="#D6BC9E"/>
<stop offset="0.494792" stop-color="#FFEEC0"/>
<stop offset="0.994792" stop-color="#D6BC9E"/>
</linearGradient>
<linearGradient id="paint2_linear_26576_36587" x1="14.2279" y1="2.27678" x2="-0.702309" y2="3.38129" gradientUnits="userSpaceOnUse">
<stop stop-color="#D6BC9E"/>
<stop offset="0.494792" stop-color="#FFEEC0"/>
<stop offset="0.994792" stop-color="#D6BC9E"/>
</linearGradient>
<linearGradient id="paint3_linear_26576_36587" x1="14.2279" y1="2.27678" x2="-0.702309" y2="3.38129" gradientUnits="userSpaceOnUse">
<stop stop-color="#D6BC9E"/>
<stop offset="0.494792" stop-color="#FFEEC0"/>
<stop offset="0.994792" stop-color="#D6BC9E"/>
</linearGradient>
<linearGradient id="paint4_linear_26576_36587" x1="14.2279" y1="2.27678" x2="-0.702309" y2="3.38129" gradientUnits="userSpaceOnUse">
<stop stop-color="#D6BC9E"/>
<stop offset="0.494792" stop-color="#FFEEC0"/>
<stop offset="0.994792" stop-color="#D6BC9E"/>
</linearGradient>
<linearGradient id="paint5_linear_26576_36587" x1="14.2279" y1="2.27678" x2="-0.702309" y2="3.38129" gradientUnits="userSpaceOnUse">
<stop stop-color="#D6BC9E"/>
<stop offset="0.494792" stop-color="#FFEEC0"/>
<stop offset="0.994792" stop-color="#D6BC9E"/>
</linearGradient>
<linearGradient id="paint6_linear_26576_36587" x1="14.2279" y1="2.27678" x2="-0.702309" y2="3.38129" gradientUnits="userSpaceOnUse">
<stop stop-color="#D6BC9E"/>
<stop offset="0.494792" stop-color="#FFEEC0"/>
<stop offset="0.994792" stop-color="#D6BC9E"/>
</linearGradient>
<linearGradient id="paint7_linear_26576_36587" x1="14.2279" y1="2.27678" x2="-0.702309" y2="3.38129" gradientUnits="userSpaceOnUse">
<stop stop-color="#D6BC9E"/>
<stop offset="0.494792" stop-color="#FFEEC0"/>
<stop offset="0.994792" stop-color="#D6BC9E"/>
</linearGradient>
</defs>
</svg>
