<svg width="16" height="16" viewBox="0 0 16 16" fill="none" xmlns="http://www.w3.org/2000/svg">
<path d="M9.21929 4.12973C9.21903 4.07484 9.20155 4.02142 9.16929 3.97699C9.13704 3.93256 9.09164 3.89937 9.03951 3.88209L8.38838 3.66358C8.1879 3.59809 8.00518 3.48739 7.85436 3.34004C7.70353 3.19269 7.58865 3.01265 7.5186 2.81383L7.29994 2.16317C7.28025 2.11493 7.24662 2.07364 7.20335 2.04458C7.16007 2.01552 7.10912 2 7.05698 2C7.00484 2 6.95389 2.01552 6.91062 2.04458C6.86735 2.07364 6.83372 2.11493 6.81403 2.16317L6.58565 2.81383C6.51814 3.01624 6.4044 3.20016 6.25343 3.35102C6.10246 3.50188 5.91841 3.61555 5.71586 3.68301L5.06474 3.90151C5.01646 3.92119 4.97515 3.95479 4.94607 3.99804C4.91699 4.04128 4.90145 4.0922 4.90145 4.1443C4.90145 4.1964 4.91699 4.24732 4.94607 4.29056C4.97515 4.3338 5.01646 4.3674 5.06474 4.38708L5.71586 4.60559C5.91841 4.67305 6.10246 4.78671 6.25343 4.93757C6.4044 5.08843 6.51814 5.27235 6.58565 5.47476L6.80431 6.12542C6.824 6.17366 6.85763 6.21495 6.9009 6.24401C6.94417 6.27307 6.99513 6.28859 7.04726 6.28859C7.0994 6.28859 7.15036 6.27307 7.19363 6.24401C7.2369 6.21495 7.27053 6.17366 7.29022 6.12542L7.50888 5.47476C7.57639 5.27235 7.69013 5.08843 7.8411 4.93757C7.99207 4.78671 8.17612 4.67305 8.37866 4.60559L9.02979 4.38708C9.08534 4.37104 9.13403 4.33712 9.1683 4.29058C9.20257 4.24404 9.22049 4.1875 9.21929 4.12973ZM13.7917 7.49473L13.058 7.25195C12.8318 7.1763 12.6263 7.04921 12.4577 6.88069C12.2891 6.71217 12.1619 6.50681 12.0862 6.28081L11.8432 5.54759C11.8253 5.48746 11.7884 5.43473 11.7381 5.39723C11.6877 5.35973 11.6266 5.33947 11.5638 5.33947C11.501 5.33947 11.4399 5.35973 11.3896 5.39723C11.3392 5.43473 11.3024 5.48746 11.2844 5.54759L11.0415 6.28081C10.9658 6.50681 10.8386 6.71217 10.67 6.88069C10.5013 7.04921 10.2958 7.1763 10.0696 7.25195L9.33591 7.49473C9.27574 7.51265 9.22297 7.54951 9.18544 7.59982C9.14792 7.65012 9.12765 7.71119 9.12765 7.77393C9.12765 7.83668 9.14792 7.89775 9.18544 7.94805C9.22297 7.99836 9.27574 8.03521 9.33591 8.05314L10.0696 8.29592C10.2958 8.37156 10.5013 8.49865 10.67 8.66718C10.8386 8.8357 10.9658 9.04106 11.0415 9.26706L11.2844 10.0003C11.3024 10.0604 11.3392 10.1131 11.3896 10.1506C11.4399 10.1881 11.501 10.2084 11.5638 10.2084C11.6266 10.2084 11.6877 10.1881 11.7381 10.1506C11.7884 10.1131 11.8253 10.0604 11.8432 10.0003L12.0862 9.26706C12.1619 9.04106 12.2891 8.8357 12.4577 8.66718C12.6263 8.49865 12.8318 8.37156 13.058 8.29592L13.7917 8.05314C13.8519 8.03521 13.9047 7.99836 13.9422 7.94805C13.9797 7.89775 14 7.83668 14 7.77393C14 7.71119 13.9797 7.65012 13.9422 7.59982C13.9047 7.54951 13.8519 7.51265 13.7917 7.49473ZM8.07254 10.4616L7.10071 10.1459C6.80526 10.0478 6.53679 9.88214 6.31663 9.66214C6.09647 9.44214 5.9307 9.17385 5.83248 8.87861L5.51664 7.90746C5.49021 7.83261 5.44121 7.7678 5.37637 7.72195C5.31153 7.6761 5.23406 7.65148 5.15463 7.65148C5.07521 7.65148 4.99773 7.6761 4.9329 7.72195C4.86806 7.7678 4.81905 7.83261 4.79263 7.90746L4.47678 8.87861C4.38053 9.17178 4.21772 9.43873 4.00108 9.65858C3.78444 9.87844 3.51985 10.0452 3.22799 10.1459L2.25616 10.4616C2.18126 10.488 2.1164 10.5369 2.07052 10.6017C2.02464 10.6665 2 10.7439 2 10.8233C2 10.9027 2.02464 10.9801 2.07052 11.0449C2.1164 11.1097 2.18126 11.1587 2.25616 11.1851L3.22799 11.5007C3.52397 11.5993 3.79278 11.7657 4.01297 11.9866C4.23317 12.2075 4.39865 12.4767 4.49622 12.7729L4.81206 13.744C4.83849 13.8189 4.8875 13.8837 4.95233 13.9295C5.01717 13.9754 5.09464 14 5.17407 14C5.2535 14 5.33097 13.9754 5.39581 13.9295C5.46064 13.8837 5.50965 13.8189 5.53607 13.744L5.85192 12.7729C5.95013 12.4776 6.11591 12.2093 6.33606 11.9893C6.55622 11.7693 6.8247 11.6037 7.12015 11.5055L8.09198 11.1899C8.16688 11.1635 8.23174 11.1145 8.27762 11.0497C8.3235 10.985 8.34814 10.9075 8.34814 10.8282C8.34814 10.7488 8.3235 10.6714 8.27762 10.6066C8.23174 10.5418 8.16688 10.4928 8.09198 10.4664L8.07254 10.4616Z" fill="url(#paint0_linear_28629_27623)"/>
<defs>
<linearGradient id="paint0_linear_28629_27623" x1="14" y1="8" x2="2.06386" y2="8.01922" gradientUnits="userSpaceOnUse">
<stop stop-color="#D6BC9E"/>
<stop offset="0.494792" stop-color="#FFEEC0"/>
<stop offset="0.994792" stop-color="#D6BC9E"/>
</linearGradient>
</defs>
</svg>
