<svg width="61" height="61" viewBox="0 0 61 61" fill="none" xmlns="http://www.w3.org/2000/svg">
<path fill-rule="evenodd" clip-rule="evenodd" d="M30.5 61C47.3447 61 61 47.3447 61 30.5C61 13.6553 47.3447 0 30.5 0C13.6553 0 0 13.6553 0 30.5C0 47.3447 13.6553 61 30.5 61ZM30.5 56C44.5833 56 56 44.5833 56 30.5C56 16.4167 44.5833 5 30.5 5C16.4167 5 5 16.4167 5 30.5C5 44.5833 16.4167 56 30.5 56Z" fill="#3D3D3D"/>
<path fill-rule="evenodd" clip-rule="evenodd" d="M30.5 58C45.6878 58 58 45.6878 58 30.5C58 15.3122 45.6878 3 30.5 3C15.3122 3 3 15.3122 3 30.5C3 45.6878 15.3122 58 30.5 58ZM30.5 53.4918C43.198 53.4918 53.4918 43.198 53.4918 30.5C53.4918 17.802 43.198 7.5082 30.5 7.5082C17.802 7.5082 7.5082 17.802 7.5082 30.5C7.5082 43.198 17.802 53.4918 30.5 53.4918Z" fill="#3D3D3D"/>
<circle opacity="0.8" cx="30.5" cy="30.5" r="25.5" fill="url(#paint0_radial_45_71)"/>
<path opacity="0.28" fill-rule="evenodd" clip-rule="evenodd" d="M55.2229 33.4095C55.2709 32.7604 55.2953 32.1045 55.2953 31.4428C55.2953 17.3911 44.2807 6 30.6935 6C27.633 6 24.703 6.57796 22 7.63409C23.8685 7.21868 25.8075 7 27.7958 7C42.3052 7 54.1901 18.6454 55.2229 33.4095Z" fill="white"/>
<defs>
<radialGradient id="paint0_radial_45_71" cx="0" cy="0" r="1" gradientUnits="userSpaceOnUse" gradientTransform="translate(22.5 39) rotate(-46.5208) scale(39.9656)">
<stop offset="0.573947" stop-color="#65512F"/>
<stop offset="1" stop-color="#D6AB63"/>
</radialGradient>
</defs>
</svg>
