<svg width="21" height="22" viewBox="0 0 21 22" fill="none" xmlns="http://www.w3.org/2000/svg">
<path d="M20.3966 11.1388L10.7913 0.635882C10.6262 0.454706 10.3136 0.454706 10.1486 0.635882L0.543199 11.1388C0.425315 11.2666 0.395626 11.4522 0.46461 11.6106C0.534467 11.7699 0.691646 11.8723 0.864543 11.8723H3.04758V21.0624C3.04758 21.3039 3.24318 21.5 3.48419 21.5H7.85027C8.09127 21.5 8.28687 21.3039 8.28687 21.0624V14.498H12.653V21.0624C12.653 21.3039 12.8486 21.5 13.0896 21.5H17.4556C17.6966 21.5 17.8922 21.3039 17.8922 21.0624V11.8723H20.0753C20.2482 11.8723 20.4054 11.7699 20.4752 11.6106C20.5442 11.4522 20.5145 11.2666 20.3966 11.1388Z" fill="#A88C5D"/>
</svg>
